<?xml version="1.0" standalone="no"?>
<!DOCTYPE svg PUBLIC "-//W3C//DTD SVG 20010904//EN"
 "http://www.w3.org/TR/2001/REC-SVG-20010904/DTD/svg10.dtd">
<svg version="1.0" xmlns="http://www.w3.org/2000/svg"
 width="558.000000pt" height="558.000000pt" viewBox="0 0 558.000000 558.000000"
 preserveAspectRatio="xMidYMid meet">
<metadata>
Created by potrace 1.14, written by Peter Selinger 2001-2017
</metadata>
<g transform="translate(0.000000,558.000000) scale(0.100000,-0.100000)"
fill="#000000" stroke="none">
<path d="M800 3653 c0 -20 6 -23 38 -24 65 -1 105 -21 127 -65 19 -38 20 -59
20 -774 0 -718 0 -736 -20 -769 -22 -38 -67 -59 -127 -60 -32 -1 -38 -4 -38
-23 l0 -23 420 0 420 0 0 21 c0 20 -7 23 -72 29 -95 10 -139 28 -164 68 -17
29 -19 55 -22 315 l-3 282 123 0 c364 0 591 106 699 325 147 301 3 593 -340
687 -69 20 -107 22 -421 25 -190 2 -411 4 -493 6 -147 2 -147 2 -147 -20z
m889 -53 c117 -66 169 -225 158 -480 -8 -184 -40 -285 -114 -362 -57 -58 -120
-80 -246 -86 l-108 -5 3 444 c3 477 3 474 56 504 44 25 195 16 251 -15z"/>
<path d="M2640 3653 c0 -20 5 -23 38 -24 61 0 104 -21 127 -59 20 -34 20 -50
23 -700 3 -672 -1 -769 -34 -831 -18 -36 -66 -67 -116 -75 -30 -5 -38 -11 -38
-28 0 -21 1 -21 240 -18 227 3 240 4 240 21 0 15 -10 21 -50 26 -66 9 -131 43
-152 80 -35 61 -39 153 -36 824 l3 654 274 -654 c426 -1015 401 -959 419 -959
13 0 86 181 317 785 165 432 303 785 308 785 11 0 8 -1304 -3 -1385 -7 -46
-17 -77 -31 -91 -22 -23 -87 -44 -138 -44 -25 0 -31 -4 -31 -22 l0 -23 390 0
390 0 0 21 c0 18 -8 22 -49 27 -72 9 -107 30 -123 74 -19 56 -19 1460 1 1516
15 45 70 76 134 77 32 0 37 3 37 23 l0 22 -281 -5 -281 -5 -228 -598 c-126
-330 -230 -601 -233 -603 -2 -2 -108 247 -235 553 -127 307 -240 581 -252 608
l-21 50 -304 0 -305 0 0 -22z"/>
</g>
</svg>
