<svg xmlns="http://www.w3.org/2000/svg" xmlns:xlink="http://www.w3.org/1999/xlink" width="1200" zoomAndPan="magnify" viewBox="0 0 900 210.749996" height="281" preserveAspectRatio="xMidYMid meet" version="1.0"><defs><g/><clipPath id="c01cc0f1b9"><path d="M 286.230469 82.109375 L 613.769531 82.109375 L 613.769531 121.460938 L 286.230469 121.460938 Z M 286.230469 82.109375 " clip-rule="nonzero"/></clipPath></defs><g fill="#231f20" fill-opacity="1"><g transform="translate(309.808303, 173.421946)"><g><path d="M 146.433594 -58.921875 C 138.460938 -24.261719 119.054688 -5.027344 91.671875 -5.027344 C 57.1875 -5.027344 41.9375 -35.699219 41.9375 -72.957031 C 41.9375 -109.175781 56.667969 -138.460938 82.835938 -138.460938 C 102.417969 -138.460938 112.296875 -119.398438 116.28125 -94.097656 L 143.835938 -101.550781 C 131.878906 -126.503906 112.121094 -142.101562 82.835938 -142.101562 C 43.152344 -142.101562 10.398438 -115.066406 10.398438 -71.050781 C 10.398438 -27.035156 38.816406 3.464844 83.355469 3.464844 C 120.09375 3.464844 140.714844 -20.277344 149.726562 -58.921875 Z M 146.433594 -58.921875 "/></g></g></g><g fill="#231f20" fill-opacity="1"><g transform="translate(457.79664, 173.421946)"><g><path d="M 128.929688 -138.636719 L 3.464844 -138.636719 L 13.515625 -124.597656 C 27.902344 -133.4375 39.683594 -134.996094 49.390625 -134.996094 L 51.640625 -134.996094 L 51.640625 -37.085938 C 51.640625 -20.96875 51.121094 -13.171875 49.734375 0 L 82.660156 0 C 81.273438 -13.171875 80.753906 -20.96875 80.753906 -37.085938 L 80.753906 -134.996094 L 83.007812 -134.996094 C 92.710938 -134.996094 104.671875 -133.4375 118.878906 -124.597656 Z M 128.929688 -138.636719 "/></g></g></g><g clip-path="url(#c01cc0f1b9)"><path fill="#fbfaf9" d="M 286.230469 82.109375 L 613.707031 82.109375 L 613.707031 122.726562 L 286.230469 122.726562 Z M 286.230469 82.109375 " fill-opacity="1" fill-rule="nonzero"/></g><g fill="#a6a6a6" fill-opacity="1"><g transform="translate(338.987616, 106.0813)"><g><path d="M 4.875 -8.53125 C 5.46875 -8.53125 6.050781 -8.410156 6.625 -8.171875 C 7.195312 -7.941406 7.6875 -7.625 8.09375 -7.21875 L 7.265625 -6.171875 C 6.953125 -6.503906 6.585938 -6.765625 6.171875 -6.953125 C 5.753906 -7.148438 5.332031 -7.25 4.90625 -7.25 C 4.050781 -7.25 3.332031 -6.957031 2.75 -6.375 C 2.164062 -5.800781 1.875 -5.097656 1.875 -4.265625 C 1.875 -3.421875 2.164062 -2.707031 2.75 -2.125 C 3.332031 -1.550781 4.050781 -1.265625 4.90625 -1.265625 C 5.78125 -1.265625 6.566406 -1.601562 7.265625 -2.28125 L 8.109375 -1.328125 C 7.671875 -0.898438 7.160156 -0.5625 6.578125 -0.3125 C 5.992188 -0.0625 5.410156 0.0625 4.828125 0.0625 C 3.578125 0.0625 2.523438 -0.347656 1.671875 -1.171875 C 0.828125 -2.003906 0.40625 -3.03125 0.40625 -4.25 C 0.40625 -5.457031 0.835938 -6.472656 1.703125 -7.296875 C 2.566406 -8.117188 3.625 -8.53125 4.875 -8.53125 Z M 4.875 -8.53125 "/></g></g></g><g fill="#a6a6a6" fill-opacity="1"><g transform="translate(357.147303, 106.0813)"><g><path d="M 8.46875 0 L 7.046875 0 L 7.046875 -3.515625 L 2.546875 -3.515625 L 2.546875 0 L 1.109375 0 L 1.109375 -8.484375 L 2.546875 -8.484375 L 2.546875 -4.796875 L 7.046875 -4.796875 L 7.046875 -8.484375 L 8.46875 -8.484375 Z M 8.46875 0 "/></g></g></g><g fill="#a6a6a6" fill-opacity="1"><g transform="translate(376.446403, 106.0813)"><g><path d="M 2.546875 -1.296875 L 6.21875 -1.296875 L 6.21875 0 L 1.109375 0 L 1.109375 -8.484375 L 2.546875 -8.484375 Z M 2.546875 -1.296875 "/></g></g></g><g fill="#a6a6a6" fill-opacity="1"><g transform="translate(392.630303, 106.0813)"><g><path d="M 1.703125 -7.296875 C 2.566406 -8.117188 3.632812 -8.53125 4.90625 -8.53125 C 6.175781 -8.53125 7.242188 -8.117188 8.109375 -7.296875 C 8.972656 -6.472656 9.40625 -5.453125 9.40625 -4.234375 C 9.40625 -3.023438 8.972656 -2.003906 8.109375 -1.171875 C 7.242188 -0.347656 6.175781 0.0625 4.90625 0.0625 C 3.632812 0.0625 2.566406 -0.347656 1.703125 -1.171875 C 0.835938 -2.003906 0.40625 -3.023438 0.40625 -4.234375 C 0.40625 -5.453125 0.835938 -6.472656 1.703125 -7.296875 Z M 4.921875 -7.234375 C 4.078125 -7.234375 3.359375 -6.941406 2.765625 -6.359375 C 2.171875 -5.785156 1.875 -5.078125 1.875 -4.234375 C 1.875 -3.398438 2.171875 -2.6875 2.765625 -2.09375 C 3.367188 -1.507812 4.085938 -1.21875 4.921875 -1.21875 C 5.753906 -1.21875 6.460938 -1.507812 7.046875 -2.09375 C 7.640625 -2.6875 7.9375 -3.398438 7.9375 -4.234375 C 7.9375 -5.078125 7.640625 -5.785156 7.046875 -6.359375 C 6.460938 -6.941406 5.753906 -7.234375 4.921875 -7.234375 Z M 4.921875 -7.234375 "/></g></g></g><g fill="#a6a6a6" fill-opacity="1"><g transform="translate(412.159713, 106.0813)"><g><path d="M 7.171875 -7.203125 L 2.546875 -7.203125 L 2.546875 -4.90625 L 6.6875 -4.90625 L 6.6875 -3.625 L 2.546875 -3.625 L 2.546875 -1.28125 L 7.328125 -1.28125 L 7.328125 0 L 1.109375 0 L 1.109375 -8.484375 L 7.171875 -8.484375 Z M 7.171875 -7.203125 "/></g></g></g><g fill="#a6a6a6" fill-opacity="1"><g transform="translate(429.822422, 106.0813)"><g/></g></g><g fill="#a6a6a6" fill-opacity="1"><g transform="translate(442.660823, 106.0813)"><g><path d="M 6.90625 -7.203125 L 4.21875 -7.203125 L 4.21875 0 L 2.78125 0 L 2.78125 -7.203125 L 0.109375 -7.203125 L 0.109375 -8.484375 L 6.90625 -8.484375 Z M 6.90625 -7.203125 "/></g></g></g><g fill="#a6a6a6" fill-opacity="1"><g transform="translate(459.390188, 106.0813)"><g><path d="M 6.5 0 L 4.953125 -2.578125 C 4.867188 -2.566406 4.738281 -2.5625 4.5625 -2.5625 L 2.546875 -2.5625 L 2.546875 0 L 1.109375 0 L 1.109375 -8.484375 L 4.5625 -8.484375 C 5.644531 -8.484375 6.484375 -8.226562 7.078125 -7.71875 C 7.679688 -7.21875 7.984375 -6.507812 7.984375 -5.59375 C 7.984375 -4.914062 7.828125 -4.34375 7.515625 -3.875 C 7.210938 -3.40625 6.78125 -3.0625 6.21875 -2.84375 L 8.125 0 Z M 2.546875 -3.84375 L 4.5625 -3.84375 C 5.9375 -3.84375 6.625 -4.410156 6.625 -5.546875 C 6.625 -6.648438 5.9375 -7.203125 4.5625 -7.203125 L 2.546875 -7.203125 Z M 2.546875 -3.84375 "/></g></g></g><g fill="#a6a6a6" fill-opacity="1"><g transform="translate(477.865031, 106.0813)"><g><path d="M 6.59375 -1.921875 L 2.3125 -1.921875 L 1.5 0 L 0.015625 0 L 3.765625 -8.484375 L 5.21875 -8.484375 L 8.9375 0 L 7.40625 0 Z M 6.046875 -3.1875 L 4.453125 -6.953125 L 2.84375 -3.1875 Z M 6.046875 -3.1875 "/></g></g></g><g fill="#a6a6a6" fill-opacity="1"><g transform="translate(496.52169, 106.0813)"><g><path d="M 3.90625 -8.546875 C 5 -8.546875 5.988281 -8.253906 6.875 -7.671875 L 6.28125 -6.421875 C 5.414062 -6.941406 4.585938 -7.203125 3.796875 -7.203125 C 3.367188 -7.203125 3.03125 -7.125 2.78125 -6.96875 C 2.53125 -6.8125 2.40625 -6.59375 2.40625 -6.3125 C 2.40625 -6.03125 2.519531 -5.789062 2.75 -5.59375 C 2.976562 -5.394531 3.257812 -5.25 3.59375 -5.15625 C 3.9375 -5.0625 4.304688 -4.941406 4.703125 -4.796875 C 5.097656 -4.660156 5.460938 -4.515625 5.796875 -4.359375 C 6.140625 -4.203125 6.421875 -3.953125 6.640625 -3.609375 C 6.867188 -3.273438 6.984375 -2.875 6.984375 -2.40625 C 6.984375 -1.65625 6.6875 -1.054688 6.09375 -0.609375 C 5.5 -0.171875 4.726562 0.046875 3.78125 0.046875 C 3.132812 0.046875 2.507812 -0.0703125 1.90625 -0.3125 C 1.300781 -0.550781 0.769531 -0.878906 0.3125 -1.296875 L 0.9375 -2.53125 C 1.363281 -2.132812 1.832031 -1.828125 2.34375 -1.609375 C 2.851562 -1.398438 3.34375 -1.296875 3.8125 -1.296875 C 4.3125 -1.296875 4.695312 -1.382812 4.96875 -1.5625 C 5.25 -1.75 5.390625 -2.003906 5.390625 -2.328125 C 5.390625 -2.617188 5.273438 -2.863281 5.046875 -3.0625 C 4.828125 -3.257812 4.546875 -3.40625 4.203125 -3.5 C 3.867188 -3.59375 3.503906 -3.703125 3.109375 -3.828125 C 2.710938 -3.960938 2.34375 -4.101562 2 -4.25 C 1.65625 -4.40625 1.367188 -4.648438 1.140625 -4.984375 C 0.921875 -5.316406 0.8125 -5.71875 0.8125 -6.1875 C 0.8125 -6.90625 1.09375 -7.476562 1.65625 -7.90625 C 2.226562 -8.332031 2.976562 -8.546875 3.90625 -8.546875 Z M 3.90625 -8.546875 "/></g></g></g><g fill="#a6a6a6" fill-opacity="1"><g transform="translate(513.772268, 106.0813)"><g><path d="M 6.59375 -1.921875 L 2.3125 -1.921875 L 1.5 0 L 0.015625 0 L 3.765625 -8.484375 L 5.21875 -8.484375 L 8.9375 0 L 7.40625 0 Z M 6.046875 -3.1875 L 4.453125 -6.953125 L 2.84375 -3.1875 Z M 6.046875 -3.1875 "/></g></g></g><g fill="#a6a6a6" fill-opacity="1"><g transform="translate(532.428927, 106.0813)"><g><path d="M 8.328125 -8.484375 L 8.328125 -3.515625 C 8.328125 -2.410156 8 -1.535156 7.34375 -0.890625 C 6.6875 -0.253906 5.785156 0.0625 4.640625 0.0625 C 3.492188 0.0625 2.59375 -0.253906 1.9375 -0.890625 C 1.28125 -1.535156 0.953125 -2.410156 0.953125 -3.515625 L 0.953125 -8.484375 L 2.375 -8.484375 L 2.375 -3.515625 C 2.375 -2.804688 2.578125 -2.242188 2.984375 -1.828125 C 3.390625 -1.421875 3.945312 -1.21875 4.65625 -1.21875 C 5.351562 -1.21875 5.898438 -1.421875 6.296875 -1.828125 C 6.703125 -2.234375 6.90625 -2.796875 6.90625 -3.515625 L 6.90625 -8.484375 Z M 8.328125 -8.484375 "/></g></g></g><g fill="#a6a6a6" fill-opacity="1"><g transform="translate(551.400748, 106.0813)"><g><path d="M 8.46875 0 L 7.0625 0 L 2.546875 -6.09375 L 2.546875 0 L 1.109375 0 L 1.109375 -8.484375 L 2.515625 -8.484375 L 7.0625 -2.390625 L 7.0625 -8.484375 L 8.46875 -8.484375 Z M 8.46875 0 "/></g></g></g></svg>